<svg xmlns="http://www.w3.org/2000/svg" width="371" height="241.449" viewBox="0 0 371 241.449">
  <g id="Certification" transform="translate(-217 -5603.59)">
    <g id="Group_4405" data-name="Group 4405" transform="translate(217 5603.59)">
      <path id="Path_14232" data-name="Path 14232" d="M530.857,367.81H805.035a8.207,8.207,0,0,1,8.207,8.207h0V551.672H522.65V376.017A8.207,8.207,0,0,1,530.857,367.81Z" transform="translate(-482.247 -321.263)" fill="#b9bfc7"/>
      <rect id="Rectangle_11388" data-name="Rectangle 11388" width="256.497" height="160.317" transform="translate(57.451 53.334)" fill="#fff"/>
      <rect id="Rectangle_11389" data-name="Rectangle 11389" width="278.693" height="171.167" transform="translate(46.728 52.818)" fill="#fff"/>
      <rect id="Rectangle_11390" data-name="Rectangle 11390" width="208.14" height="11.401" transform="translate(72.969 230.047)" fill="#fff" opacity="0.58" style="isolation: isolate"/>
      <path id="Path_14233" data-name="Path 14233" d="M849,575.615V569.8H693.026l-2.525,2.525a6.332,6.332,0,0,1-4.443,1.81H641.276a6.264,6.264,0,0,1-4.1-1.52l-3.3-2.841H478v5.818l11.664,5.429H835.924Z" transform="translate(-478 -340.474)" fill="#b9bfc7"/>
      <rect id="Rectangle_11391" data-name="Rectangle 11391" width="256.497" height="160.317" transform="translate(57.451 53.334)" fill="none"/>
      <rect id="Rectangle_11392" data-name="Rectangle 11392" width="279.191" height="11.804" transform="translate(46.438 52.976)" fill="#d5d9e0" opacity="0.54" style="isolation: isolate"/>
      <rect id="Rectangle_11393" data-name="Rectangle 11393" width="56.872" height="11.456" transform="translate(87.909 53.334)" fill="#fff"/>
      <circle id="Ellipse_1022" data-name="Ellipse 1022" cx="1.565" cy="1.565" r="1.565" transform="translate(64.427 57.333)" fill="#00ac41"/>
      <circle id="Ellipse_1023" data-name="Ellipse 1023" cx="1.565" cy="1.565" r="1.565" transform="translate(70.761 57.333)" fill="#199cd8"/>
      <circle id="Ellipse_1024" data-name="Ellipse 1024" cx="1.565" cy="1.565" r="1.565" transform="translate(77.087 57.333)" fill="#868d95"/>
      <circle id="Ellipse_1025" data-name="Ellipse 1025" cx="1.565" cy="1.565" r="1.565" transform="translate(91.411 57.333)" fill="#003865"/>
      <line id="Line_585" data-name="Line 585" x2="2.19" y2="2.19" transform="translate(138.112 57.804)" fill="none" stroke="#868d95" stroke-miterlimit="10" stroke-width="0.31"/>
      <line id="Line_586" data-name="Line 586" y1="2.19" x2="2.19" transform="translate(138.075 57.804)" fill="none" stroke="#868d95" stroke-miterlimit="10" stroke-width="0.31"/>
      <line id="Line_587" data-name="Line 587" y2="3.095" transform="translate(148.563 57.351)" fill="none" stroke="#868d95" stroke-miterlimit="10" stroke-width="0.31"/>
      <line id="Line_588" data-name="Line 588" x2="3.086" transform="translate(146.988 58.871)" fill="none" stroke="#868d95" stroke-miterlimit="10" stroke-width="0.31"/>
      <line id="Line_589" data-name="Line 589" x2="24.604" transform="translate(98.994 58.048)" fill="none" stroke="#d5d9e0" stroke-linecap="round" stroke-miterlimit="10" stroke-width="0.5" opacity="0.94" style="isolation: isolate"/>
      <line id="Line_590" data-name="Line 590" x2="8.316" transform="translate(98.994 59.749)" fill="none" stroke="#d5d9e0" stroke-linecap="round" stroke-miterlimit="10" stroke-width="0.5" opacity="0.94" style="isolation: isolate"/>
      <path id="Path_14234" data-name="Path 14234" d="M611.645,368.37h138.7a8.893,8.893,0,0,1,9.049,8.728V493.564a8.893,8.893,0,0,1-9.049,8.728H617.038a14.228,14.228,0,0,1-14.478-13.965V377.1a8.893,8.893,0,0,1,9.049-8.728Z" transform="translate(-490.848 -317.393)" fill="#009de0" opacity="0.2" style="isolation: isolate"/>
      <rect id="Rectangle_11394" data-name="Rectangle 11394" width="156.788" height="180.469" rx="10" transform="translate(107.101 0)" fill="#009de0"/>
      <path id="Path_14236" data-name="Path 14236" d="M573.266,444.013V427.49H554.68v22.721h12.4Z" transform="translate(-485.294 -326.94)" fill="#003865"/>
      <line id="Line_591" data-name="Line 591" x2="19.174" transform="translate(69.096 128.14)" fill="none" stroke="#00ac41" stroke-linecap="round" stroke-miterlimit="10" stroke-width="1" opacity="0.94" style="isolation: isolate"/>
      <line id="Line_592" data-name="Line 592" x2="13.745" transform="translate(71.811 130.737)" fill="none" stroke="#00ac41" stroke-linecap="round" stroke-miterlimit="10" stroke-width="1" opacity="0.94" style="isolation: isolate"/>
      <path id="Path_14237" data-name="Path 14237" d="M631.621,342.388a5.151,5.151,0,0,1,2.135-2.126,6.593,6.593,0,0,1,3.2-.742,6.675,6.675,0,0,1,1.656.19,3.715,3.715,0,0,1,1.167.5v1.737a4.723,4.723,0,0,0-2.878-.9,3.945,3.945,0,0,0-3.068,1.222,4.731,4.731,0,0,0-1.113,3.312,5.18,5.18,0,0,0,.525,2.416,3.747,3.747,0,0,0,1.457,1.584,4.144,4.144,0,0,0,2.2.561,5.972,5.972,0,0,0,1.629-.226,3.521,3.521,0,0,0,1.267-.606v1.683a4.3,4.3,0,0,1-1.312.525,7.766,7.766,0,0,1-1.692.181,6.234,6.234,0,0,1-3.14-.76,5.124,5.124,0,0,1-2.063-2.145,6.914,6.914,0,0,1-.724-3.212A6.644,6.644,0,0,1,631.621,342.388Z" transform="translate(-492.541 -318.572)" fill="#fff"/>
      <path id="Path_14238" data-name="Path 14238" d="M644.99,350.041h5.266v1.565H643.18V339.68h6.986v1.556h-5.2V344.7H649.6v1.6h-4.642Z" transform="translate(-493.712 -318.587)" fill="#fff"/>
      <path id="Path_14239" data-name="Path 14239" d="M659.715,351.605l-2.959-4.588H655.39v4.588h-1.81V339.679h3.185a5.173,5.173,0,0,1,3.3.95,3.24,3.24,0,0,1,1.194,2.669,3.421,3.421,0,0,1-.679,2.154,3.8,3.8,0,0,1-1.945,1.285l3.258,4.868Zm-4.325-6.126H656.9a2.714,2.714,0,0,0,1.81-.579,1.973,1.973,0,0,0,.67-1.6,1.891,1.891,0,0,0-.661-1.529,2.8,2.8,0,0,0-1.81-.552h-1.529Z" transform="translate(-494.702 -318.586)" fill="#fff"/>
      <path id="Path_14240" data-name="Path 14240" d="M671.968,339.68v1.556h-3.375v10.37h-1.81v-10.37H663.39V339.68Z" transform="translate(-495.635 -318.587)" fill="#fff"/>
      <path id="Path_14241" data-name="Path 14241" d="M676.81,339.68v11.926H675V339.68Z" transform="translate(-496.739 -318.587)" fill="#fff"/>
      <path id="Path_14242" data-name="Path 14242" d="M687.5,341.236h-5.2v3.674h4.633v1.556H682.3v5.14h-1.81V339.68h6.986Z" transform="translate(-497.261 -318.587)" fill="#fff"/>
      <path id="Path_14243" data-name="Path 14243" d="M692.51,339.68v11.926H690.7V339.68Z" transform="translate(-498.232 -318.587)" fill="#fff"/>
      <path id="Path_14244" data-name="Path 14244" d="M696.281,342.388a5.2,5.2,0,0,1,2.135-2.126,6.637,6.637,0,0,1,3.2-.742,6.741,6.741,0,0,1,1.665.19,3.81,3.81,0,0,1,1.167.5v1.737a4.765,4.765,0,0,0-2.887-.9,3.936,3.936,0,0,0-3.058,1.222,4.73,4.73,0,0,0-1.113,3.312,5.281,5.281,0,0,0,.516,2.416,3.768,3.768,0,0,0,1.466,1.584,4.138,4.138,0,0,0,2.19.561,5.972,5.972,0,0,0,1.629-.226,3.488,3.488,0,0,0,1.276-.606v1.683a4.349,4.349,0,0,1-1.321.525,7.656,7.656,0,0,1-1.692.181,6.253,6.253,0,0,1-3.14-.76,5.239,5.239,0,0,1-2.063-2.145,6.913,6.913,0,0,1-.724-3.212A6.644,6.644,0,0,1,696.281,342.388Z" transform="translate(-498.692 -318.572)" fill="#fff"/>
      <path id="Path_14245" data-name="Path 14245" d="M715.42,351.606l-.959-2.941h-4.814l-.9,2.941H706.86l4.09-11.926h2.371l4.036,11.926Zm-1.448-4.443-.2-.606q-1.52-4.706-1.7-5.429c-.244.832-.832,2.651-1.746,5.429l-.2.606Z" transform="translate(-499.77 -318.587)" fill="#fff"/>
      <path id="Path_14246" data-name="Path 14246" d="M726.7,339.68v1.556h-3.375v10.37h-1.81v-10.37H718.12V339.68Z" transform="translate(-500.841 -318.587)" fill="#fff"/>
      <path id="Path_14247" data-name="Path 14247" d="M731.582,350.041h5.284v1.565H729.79V339.68h6.986v1.556h-5.194V344.7h4.633v1.6h-4.633Z" transform="translate(-501.951 -318.587)" fill="#fff"/>
      <rect id="Rectangle_11395" data-name="Rectangle 11395" width="52.248" height="1.774" transform="translate(160.498 38.503)" fill="#fff"/>
      <rect id="Rectangle_11396" data-name="Rectangle 11396" width="114.069" height="1.774" transform="translate(128.466 73.965)" fill="#f6f7f9"/>
      <rect id="Rectangle_11397" data-name="Rectangle 11397" width="114.069" height="1.774" transform="translate(128.466 86.687)" fill="#f6f7f9"/>
      <rect id="Rectangle_11398" data-name="Rectangle 11398" width="102.378" height="1.774" transform="translate(134.311 99.419)" fill="#f6f7f9"/>
      <rect id="Rectangle_11399" data-name="Rectangle 11399" width="114.069" height="1.774" transform="translate(128.466 112.151)" fill="#f6f7f9"/>
      <rect id="Rectangle_11400" data-name="Rectangle 11400" width="72.101" height="1.774" transform="translate(149.45 124.873)" fill="#f6f7f9"/>
      <path id="Path_14248" data-name="Path 14248" d="M749.463,532l-11.4-11.438-11.4,11.4V506.92h22.8V532" transform="translate(-501.653 -334.495)" fill="#00ac41"/>
      <path id="Path_14249" data-name="Path 14249" d="M752.825,480.822V494.5l6.841-6.841-6.841-6.841m-31.924,0-6.841,6.841L720.9,494.5V480.822m15.962-15.962-6.841,6.841H743.7l-6.841-6.841" transform="translate(-500.454 -330.495)" fill="#f6f7f9"/>
      <path id="Path_14250" data-name="Path 14250" d="M745.382,507.7H731.7l6.841,6.841,6.841-6.841" transform="translate(-502.132 -334.57)" fill="#f6f7f9"/>
      <circle id="Ellipse_1026" data-name="Ellipse 1026" cx="9.121" cy="9.121" r="9.121" transform="translate(227.287 148.047)" fill="#fff"/>
      <path id="Path_14251" data-name="Path 14251" d="M728.859,504.344h17.419a7.239,7.239,0,0,0,7.239-7.239V479.659a7.239,7.239,0,0,0-7.239-7.239H728.859a7.239,7.239,0,0,0-7.239,7.239v17.446a7.239,7.239,0,0,0,7.239,7.239" transform="translate(-501.174 -331.214)" fill="#00ac41"/>
      <circle id="Ellipse_1027" data-name="Ellipse 1027" cx="7.71" cy="7.71" r="7.71" transform="translate(228.509 148.843)" fill="#f6f7f9"/>
      <path id="Path_14277" data-name="Path 14277" d="M815.266,444.013V427.49H796.68v22.721h12.4Z" transform="translate(-508.313 -326.94)" fill="#003865"/>
      <line id="Line_594" data-name="Line 594" x2="19.174" transform="translate(288.077 128.14)" fill="none" stroke="#00ac41" stroke-linecap="round" stroke-miterlimit="10" stroke-width="1" opacity="0.94" style="isolation: isolate"/>
      <line id="Line_595" data-name="Line 595" x2="13.745" transform="translate(290.792 130.737)" fill="none" stroke="#00ac41" stroke-linecap="round" stroke-miterlimit="10" stroke-width="1" opacity="0.94" style="isolation: isolate"/>
      <path id="Path_14278" data-name="Path 14278" d="M573.266,509.013V492.49H554.68v22.721h12.4Z" transform="translate(-485.294 -333.123)" fill="#003865"/>
      <line id="Line_596" data-name="Line 596" x2="19.174" transform="translate(69.096 186.957)" fill="none" stroke="#00ac41" stroke-linecap="round" stroke-miterlimit="10" stroke-width="1" opacity="0.94" style="isolation: isolate"/>
      <line id="Line_597" data-name="Line 597" x2="13.745" transform="translate(71.811 189.554)" fill="none" stroke="#00ac41" stroke-linecap="round" stroke-miterlimit="10" stroke-width="1" opacity="0.94" style="isolation: isolate"/>
      <path id="Path_14279" data-name="Path 14279" d="M815.266,509.013V492.49H796.68v22.721h12.4Z" transform="translate(-508.313 -333.123)" fill="#003865"/>
      <line id="Line_598" data-name="Line 598" x2="19.174" transform="translate(288.077 186.957)" fill="none" stroke="#00ac41" stroke-linecap="round" stroke-miterlimit="10" stroke-width="1" opacity="0.94" style="isolation: isolate"/>
      <line id="Line_599" data-name="Line 599" x2="13.745" transform="translate(290.792 189.554)" fill="none" stroke="#00ac41" stroke-linecap="round" stroke-miterlimit="10" stroke-width="1" opacity="0.94" style="isolation: isolate"/>
    </g>
  </g>
</svg>
